<svg width="501" height="501" viewBox="0 0 501 501" fill="none" xmlns="http://www.w3.org/2000/svg">
<rect width="500" height="500" transform="translate(0.710938 0.205078)" fill="#0F1B07"/>
<path d="M157.384 199.256H212.833V236.026H157.384V282.646C157.384 292.861 165.659 301.15 175.87 301.155H212.833V338.169H175.869C145.256 338.169 120.433 313.327 120.412 282.673V236.026H83.5869V199.256H120.412V162.704H157.384V199.256ZM219.386 199.256C235.511 199.256 250.362 204.782 262.136 214.042L298.896 241.601C304.652 245.837 309.138 249.451 316.99 249.451C324.866 249.451 329.391 245.809 335.136 241.544L372.101 213.611C383.781 204.61 398.42 199.256 414.299 199.256H416.92V236.027H414.299C406.562 236.027 399.715 239.196 393.458 243.588L361.105 268.436L387.696 288.787C395.611 294.837 403.677 301.143 414.299 301.143H416.92V337.919H414.299C398.167 337.919 383.322 332.394 371.547 323.127L335.037 294.896C329.398 290.59 324.779 286.957 316.99 286.957C308.986 286.957 304.249 290.818 298.473 295.207L262.137 323.127C250.363 332.386 235.518 337.919 219.386 337.919H216.765V301.143H219.386C227.186 301.143 234.217 298.182 240.147 293.649L272.593 268.72L240.163 243.543C234.06 239.075 227.141 236.027 219.386 236.027H216.765V199.256H219.386Z" fill="#B1FC03"/>
</svg>
